<svg width="413" height="194" fill="none" xmlns="http://www.w3.org/2000/svg"><g clip-path="url(#prefix__clip0_11_2)"><path fill="#ECECEC" d="M0 0h413v194H0z"/><g clip-path="url(#prefix__clip1_11_2)" fill="#938F8F"><path d="M187.432 14.149l-3.714 15.829h46.686v58.515l3.448.8L248 28.377l-60.568-14.228z"/><path d="M164 96.852h62.16V34.335H164v62.517zm5.394-57.092h51.372v22.765l-12.025-13.16-18.48 21.52-8.665-8.36-12.114 11.561V39.76h-.088zm0 41.885l12.113-11.471 9.019 8.714 18.303-21.254 11.937 12.984v20.81h-51.372v-9.783z"/><path d="M185.309 50.431c0 3.045-2.454 5.514-5.482 5.514-3.027 0-5.482-2.469-5.482-5.514 0-3.044 2.455-5.513 5.482-5.513 3.028 0 5.482 2.468 5.482 5.513z"/></g><path d="M124.567 119.488h-3.28V129h-2.704v-9.512h-3.28v-2.144h9.264v2.144zm11.55-2.144V129h-2.72v-4.928h-4.736V129h-2.72v-11.656h2.72v4.872h4.736v-4.872h2.72zm4.981 2.08v2.72h3.664v2h-3.664v2.776h4.784V129h-7.504v-11.656h7.504v2.08h-4.784zm10.244 3.4c.368 0 .68-.045.936-.136a1.74 1.74 0 00.64-.392c.165-.165.285-.357.36-.576.075-.224.112-.464.112-.72 0-.512-.168-.912-.504-1.2-.331-.288-.845-.432-1.544-.432h-1.088v3.456h1.088zm5.744 6.176h-2.448c-.453 0-.779-.171-.976-.512l-1.936-3.384a.901.901 0 00-.304-.312c-.112-.069-.272-.104-.48-.104h-.688V129h-2.704v-11.656h3.792c.843 0 1.56.088 2.152.264.597.171 1.083.411 1.456.72.379.309.653.675.824 1.096.171.421.256.88.256 1.376 0 .379-.051.736-.152 1.072a3.365 3.365 0 01-.448.936 3.411 3.411 0 01-.736.76 3.833 3.833 0 01-1 .552c.176.091.341.205.496.344.155.133.293.293.416.48l2.48 4.056zm3.7-9.576v2.72h3.664v2h-3.664v2.776h4.783V129h-7.503v-11.656h7.503v2.08h-4.783zm15.768 5.12l-1.08-3.192c-.08-.203-.166-.44-.256-.712a21.713 21.713 0 01-.272-.896 12.951 12.951 0 01-.512 1.624l-1.072 3.176h3.192zM180.85 129h-2.096c-.235 0-.424-.053-.568-.16a1.064 1.064 0 01-.328-.424l-.688-2.032h-4.432l-.688 2.032a1.001 1.001 0 01-.32.408.882.882 0 01-.56.176h-2.112l4.512-11.656h2.768L180.85 129zm4.711-6.176c.368 0 .68-.045.936-.136.261-.096.474-.227.64-.392.165-.165.285-.357.36-.576.074-.224.112-.464.112-.72 0-.512-.168-.912-.504-1.2-.331-.288-.846-.432-1.544-.432h-1.088v3.456h1.088zm5.744 6.176h-2.448c-.454 0-.779-.171-.976-.512l-1.936-3.384a.901.901 0 00-.304-.312c-.112-.069-.272-.104-.48-.104h-.688V129h-2.704v-11.656h3.792c.842 0 1.56.088 2.152.264.597.171 1.082.411 1.456.72.378.309.653.675.824 1.096.17.421.256.88.256 1.376 0 .379-.051.736-.152 1.072a3.393 3.393 0 01-.448.936 3.433 3.433 0 01-.736.76 3.85 3.85 0 01-1 .552c.176.091.341.205.496.344.154.133.293.293.416.48l2.48 4.056zm3.699-9.576v2.72h3.664v2h-3.664v2.776h4.784V129h-7.504v-11.656h7.504v2.08h-4.784zm20.331-2.08V129h-1.408c-.208 0-.384-.032-.528-.096a1.366 1.366 0 01-.416-.352l-5.496-6.952c.022.208.035.411.04.608.011.192.016.373.016.544V129h-2.384v-11.656h1.424c.118 0 .216.005.296.016a.69.69 0 01.216.064.646.646 0 01.184.12c.059.053.126.125.2.216l5.544 7a10.393 10.393 0 01-.072-1.248v-6.168h2.384zm13.702 5.824c0 .843-.147 1.627-.44 2.352a5.668 5.668 0 01-1.224 1.896 5.664 5.664 0 01-1.912 1.256c-.742.304-1.566.456-2.472.456-.907 0-1.734-.152-2.48-.456a5.739 5.739 0 01-1.92-1.256 5.767 5.767 0 01-1.232-1.896 6.313 6.313 0 01-.432-2.352c0-.843.144-1.627.432-2.352a5.67 5.67 0 011.232-1.888 5.739 5.739 0 011.92-1.256c.746-.304 1.573-.456 2.48-.456.906 0 1.73.155 2.472.464a5.664 5.664 0 011.912 1.256 5.575 5.575 0 011.224 1.888 6.2 6.2 0 01.44 2.344zm-2.768 0c0-.576-.075-1.093-.224-1.552a3.277 3.277 0 00-.648-1.176 2.753 2.753 0 00-1.024-.736 3.535 3.535 0 00-1.384-.256c-.523 0-.99.085-1.4.256-.406.171-.75.416-1.032.736a3.31 3.31 0 00-.64 1.176c-.15.459-.224.976-.224 1.552 0 .581.074 1.104.224 1.568.149.459.362.848.64 1.168.282.32.626.565 1.032.736.41.165.877.248 1.4.248.517 0 .978-.083 1.384-.248a2.753 2.753 0 001.024-.736c.282-.32.498-.709.648-1.168.149-.464.224-.987.224-1.568zM237.051 129h-2.72v-11.656h2.72V129zm15.353-11.656V129h-2.384v-6.704c0-.155.003-.323.008-.504.011-.181.027-.365.048-.552l-3.096 5.992a1.009 1.009 0 01-.392.424c-.16.096-.344.144-.552.144h-.368c-.208 0-.395-.048-.56-.144a1.024 1.024 0 01-.384-.424l-3.096-6.008c.016.192.029.381.04.568.011.181.016.349.016.504V129H239.3v-11.656h2.064c.117 0 .219.003.304.008a.774.774 0 01.24.048.48.48 0 01.184.128.828.828 0 01.168.232l3 5.912c.107.203.208.413.304.632.101.219.197.443.288.672.091-.235.184-.464.28-.688.101-.224.208-.437.32-.64l2.992-5.888a.966.966 0 01.16-.232.557.557 0 01.192-.128.759.759 0 01.232-.048 5.71 5.71 0 01.312-.008h2.064zm8.415 7.2l-1.08-3.192a14.62 14.62 0 01-.256-.712c-.09-.277-.181-.576-.272-.896a12.425 12.425 0 01-.512 1.624l-1.072 3.176h3.192zm4.296 4.456h-2.096c-.234 0-.424-.053-.568-.16a1.073 1.073 0 01-.328-.424l-.688-2.032h-4.432l-.688 2.032a.985.985 0 01-.32.408.88.88 0 01-.56.176h-2.112l4.512-11.656h2.768L265.115 129zm6.129-6.04h4.144v4.92a6.127 6.127 0 01-1.912.952 7.47 7.47 0 01-2.112.296c-.96 0-1.835-.149-2.624-.448a6.132 6.132 0 01-2.016-1.248 5.527 5.527 0 01-1.296-1.888 6.126 6.126 0 01-.456-2.376c0-.869.144-1.667.432-2.392a5.404 5.404 0 011.232-1.888 5.64 5.64 0 011.944-1.232c.762-.293 1.613-.44 2.552-.44.485 0 .941.04 1.368.12.426.08.818.189 1.176.328a5.372 5.372 0 011.792 1.12l-.784 1.192a.755.755 0 01-.48.344c-.192.043-.4-.005-.624-.144a7.185 7.185 0 00-.608-.328 3.384 3.384 0 00-.576-.232 3.83 3.83 0 00-.624-.128 6.059 6.059 0 00-.736-.04c-.507 0-.963.091-1.368.272a2.927 2.927 0 00-1.04.752 3.427 3.427 0 00-.656 1.176c-.155.453-.232.96-.232 1.52 0 .619.085 1.168.256 1.648.17.48.41.885.72 1.216.314.331.688.584 1.12.76.437.171.92.256 1.448.256.325 0 .618-.032.88-.096.266-.064.525-.149.776-.256v-1.768h-1.152c-.171 0-.304-.045-.4-.136a.453.453 0 01-.144-.344v-1.488zm8.682-3.536v2.72h3.664v2h-3.664v2.776h4.784V129h-7.504v-11.656h7.504v2.08h-4.784zm12.892.288a.979.979 0 01-.256.288.545.545 0 01-.336.096.872.872 0 01-.4-.112 16.02 16.02 0 00-.48-.264 3.634 3.634 0 00-.608-.256 2.374 2.374 0 00-.784-.12c-.507 0-.885.109-1.136.328-.245.213-.368.504-.368.872 0 .235.075.429.224.584.149.155.344.288.584.4.245.112.523.216.832.312.315.091.635.195.96.312.325.112.643.245.952.4.315.155.592.352.832.592.245.24.443.533.592.88.149.341.224.755.224 1.24 0 .539-.093 1.043-.28 1.512-.187.469-.459.88-.816 1.232a3.794 3.794 0 01-1.312.824c-.517.197-1.107.296-1.768.296-.363 0-.733-.037-1.112-.112a6.95 6.95 0 01-1.088-.312 6.576 6.576 0 01-.992-.488 4.242 4.242 0 01-.808-.624l.8-1.264a.776.776 0 01.248-.224.657.657 0 01.344-.096c.16 0 .32.051.48.152l.552.336c.208.123.445.235.712.336.267.101.581.152.944.152.491 0 .872-.107 1.144-.32.272-.219.408-.563.408-1.032 0-.272-.075-.493-.224-.664a1.718 1.718 0 00-.592-.424 5.24 5.24 0 00-.824-.296 30.289 30.289 0 01-.952-.28 7.825 7.825 0 01-.952-.384 3.197 3.197 0 01-.832-.6 2.899 2.899 0 01-.584-.928c-.149-.373-.224-.832-.224-1.376a3.306 3.306 0 011.04-2.392c.341-.325.76-.584 1.256-.776.496-.197 1.064-.296 1.704-.296.357 0 .704.029 1.04.088.341.053.664.136.968.248.304.107.587.237.848.392.267.149.504.32.712.512l-.672 1.256zm1.795 8.032c0-.192.035-.371.104-.536.075-.165.174-.309.296-.432a1.4 1.4 0 01.448-.288 1.38 1.38 0 01.56-.112c.198 0 .382.037.552.112.171.069.32.165.448.288.128.123.227.267.296.432.075.165.112.344.112.536 0 .192-.037.373-.112.544a1.276 1.276 0 01-.296.432 1.39 1.39 0 01-.448.288c-.17.069-.354.104-.552.104-.202 0-.389-.035-.56-.104a1.4 1.4 0 01-.448-.288 1.474 1.474 0 01-.296-.432 1.44 1.44 0 01-.104-.544zM90.916 150.96c.357 0 .648-.045.872-.136.229-.091.408-.208.536-.352.128-.144.216-.307.264-.488.048-.181.072-.365.072-.552 0-.213-.03-.405-.088-.576a.908.908 0 00-.288-.432 1.374 1.374 0 00-.536-.272 3.147 3.147 0 00-.848-.096h-1.888v2.904h1.904zm-1.904-7.592v2.88h1.408c.298 0 .568-.021.808-.064a1.64 1.64 0 00.608-.224.994.994 0 00.384-.44c.09-.187.136-.421.136-.704 0-.277-.035-.507-.104-.688a.987.987 0 00-.32-.448 1.345 1.345 0 00-.552-.24 3.705 3.705 0 00-.784-.072h-1.584zm1.584-2.024c.805 0 1.49.075 2.056.224.565.149 1.026.36 1.384.632.357.272.616.603.776.992.165.389.248.824.248 1.304 0 .261-.038.515-.112.76-.075.24-.192.467-.352.68-.16.208-.366.4-.616.576-.251.176-.552.328-.904.456.768.187 1.336.488 1.704.904.368.416.552.955.552 1.616 0 .496-.096.957-.288 1.384-.192.427-.475.8-.848 1.12-.368.315-.824.563-1.368.744-.544.176-1.166.264-1.864.264h-4.656v-11.656h4.288zm9.15 2.08v2.72h3.664v2h-3.664v2.776h4.784V153h-7.504v-11.656h7.504v2.08h-4.784zm18.047.064h-3.28V153h-2.704v-9.512h-3.28v-2.144h9.264v2.144zm11.55-2.144V153h-2.72v-4.928h-4.736V153h-2.72v-11.656h2.72v4.872h4.736v-4.872h2.72zm4.982 2.08v2.72h3.664v2h-3.664v2.776h4.784V153h-7.504v-11.656h7.504v2.08h-4.784zm12.875 0v2.952h3.984v2.088H147.2V153h-2.72v-11.656h7.504v2.08H147.2zm9.062 9.576h-2.72v-11.656h2.72V153zm6.041-6.176c.368 0 .68-.045.936-.136.261-.096.474-.227.64-.392.165-.165.285-.357.36-.576.074-.224.112-.464.112-.72 0-.512-.168-.912-.504-1.2-.331-.288-.846-.432-1.544-.432h-1.088v3.456h1.088zm5.744 6.176h-2.448c-.454 0-.779-.171-.976-.512l-1.936-3.384a.901.901 0 00-.304-.312c-.112-.069-.272-.104-.48-.104h-.688V153h-2.704v-11.656h3.792c.842 0 1.56.088 2.152.264.597.171 1.082.411 1.456.72.378.309.653.675.824 1.096.17.421.256.88.256 1.376 0 .379-.051.736-.152 1.072a3.393 3.393 0 01-.448.936 3.433 3.433 0 01-.736.76 3.85 3.85 0 01-1 .552c.176.091.341.205.496.344.154.133.293.293.416.48l2.48 4.056zm7.419-9.288a.979.979 0 01-.256.288.545.545 0 01-.336.096.875.875 0 01-.4-.112c-.138-.08-.298-.168-.48-.264a3.598 3.598 0 00-.608-.256 2.37 2.37 0 00-.784-.12c-.506 0-.885.109-1.136.328-.245.213-.368.504-.368.872 0 .235.075.429.224.584.15.155.344.288.584.4.246.112.523.216.832.312.315.091.635.195.96.312.326.112.643.245.952.4.315.155.592.352.832.592.246.24.443.533.592.88.15.341.224.755.224 1.24 0 .539-.093 1.043-.28 1.512-.186.469-.458.88-.816 1.232a3.794 3.794 0 01-1.312.824c-.517.197-1.106.296-1.768.296-.362 0-.733-.037-1.112-.112a6.95 6.95 0 01-1.088-.312 6.623 6.623 0 01-.992-.488 4.273 4.273 0 01-.808-.624l.8-1.264a.776.776 0 01.248-.224.66.66 0 01.344-.096c.16 0 .32.051.48.152l.552.336c.208.123.446.235.712.336.267.101.582.152.944.152.491 0 .872-.107 1.144-.32.272-.219.408-.563.408-1.032 0-.272-.074-.493-.224-.664a1.708 1.708 0 00-.592-.424 5.204 5.204 0 00-.824-.296 31.098 31.098 0 01-.952-.28 7.89 7.89 0 01-.952-.384 3.214 3.214 0 01-.832-.6 2.916 2.916 0 01-.584-.928c-.149-.373-.224-.832-.224-1.376a3.306 3.306 0 011.04-2.392c.342-.325.76-.584 1.256-.776.496-.197 1.064-.296 1.704-.296.358 0 .704.029 1.04.088.342.053.664.136.968.248.304.107.587.237.848.392.267.149.504.32.712.512l-.672 1.256zm10.796-.224h-3.28V153h-2.704v-9.512h-3.28v-2.144h9.264v2.144zm16.033 3.68c0 .843-.147 1.627-.44 2.352a5.668 5.668 0 01-1.224 1.896 5.664 5.664 0 01-1.912 1.256c-.742.304-1.566.456-2.472.456-.907 0-1.734-.152-2.48-.456a5.739 5.739 0 01-1.92-1.256 5.767 5.767 0 01-1.232-1.896 6.313 6.313 0 01-.432-2.352c0-.843.144-1.627.432-2.352a5.67 5.67 0 011.232-1.888 5.739 5.739 0 011.92-1.256c.746-.304 1.573-.456 2.48-.456.906 0 1.73.155 2.472.464a5.664 5.664 0 011.912 1.256 5.575 5.575 0 011.224 1.888 6.2 6.2 0 01.44 2.344zm-2.768 0c0-.576-.075-1.093-.224-1.552a3.277 3.277 0 00-.648-1.176 2.753 2.753 0 00-1.024-.736 3.535 3.535 0 00-1.384-.256c-.523 0-.99.085-1.4.256-.406.171-.75.416-1.032.736a3.31 3.31 0 00-.64 1.176c-.15.459-.224.976-.224 1.552 0 .581.074 1.104.224 1.568.149.459.362.848.64 1.168.282.32.626.565 1.032.736.41.165.877.248 1.4.248.517 0 .978-.083 1.384-.248a2.753 2.753 0 001.024-.736c.282-.32.498-.709.648-1.168.149-.464.224-.987.224-1.568zm14.535-5.824V153h-1.408c-.208 0-.384-.032-.528-.096a1.343 1.343 0 01-.416-.352l-5.496-6.952c.021.208.034.411.04.608.01.192.016.373.016.544V153h-2.384v-11.656h1.424c.117 0 .216.005.296.016a.69.69 0 01.216.064.66.66 0 01.184.12c.058.053.125.125.2.216l5.544 7a9.062 9.062 0 01-.056-.648 11.645 11.645 0 01-.016-.6v-6.168h2.384zm4.981 2.08v2.72h3.664v2h-3.664v2.776h4.784V153h-7.504v-11.656h7.504v2.08h-4.784zm18.047.064h-3.28V153h-2.704v-9.512h-3.28v-2.144h9.264v2.144zm12.548 3.68c0 .843-.146 1.627-.44 2.352a5.668 5.668 0 01-1.224 1.896 5.654 5.654 0 01-1.912 1.256c-.741.304-1.565.456-2.472.456-.906 0-1.733-.152-2.48-.456a5.759 5.759 0 01-1.92-1.256 5.783 5.783 0 01-1.232-1.896 6.313 6.313 0 01-.432-2.352c0-.843.144-1.627.432-2.352a5.686 5.686 0 011.232-1.888 5.759 5.759 0 011.92-1.256c.747-.304 1.574-.456 2.48-.456.907 0 1.731.155 2.472.464a5.654 5.654 0 011.912 1.256 5.575 5.575 0 011.224 1.888 6.18 6.18 0 01.44 2.344zm-2.768 0c0-.576-.074-1.093-.224-1.552a3.247 3.247 0 00-.648-1.176 2.737 2.737 0 00-1.024-.736 3.529 3.529 0 00-1.384-.256c-.522 0-.989.085-1.4.256a2.823 2.823 0 00-1.032.736c-.277.32-.49.712-.64 1.176a5.013 5.013 0 00-.224 1.552c0 .581.075 1.104.224 1.568.15.459.363.848.64 1.168.283.32.627.565 1.032.736.411.165.878.248 1.4.248.518 0 .979-.083 1.384-.248a2.737 2.737 0 001.024-.736c.283-.32.499-.709.648-1.168.15-.464.224-.987.224-1.568zm12.927 3.696c.362 0 .685-.059.968-.176.288-.123.53-.296.728-.52.197-.224.346-.496.448-.816.106-.325.16-.693.16-1.104v-6.904h2.704v6.904c0 .715-.118 1.371-.352 1.968a4.38 4.38 0 01-.992 1.544 4.5 4.5 0 01-1.576 1.008c-.619.24-1.315.36-2.088.36-.779 0-1.478-.12-2.096-.36a4.491 4.491 0 01-1.576-1.008 4.366 4.366 0 01-.992-1.544 5.43 5.43 0 01-.344-1.968v-6.904h2.704v6.896c0 .411.05.779.152 1.104.106.32.258.595.456.824.197.224.437.397.72.52.288.117.613.176.976.176zm11.232-3.8c.704 0 1.211-.168 1.52-.504.309-.336.464-.805.464-1.408 0-.267-.04-.509-.12-.728a1.564 1.564 0 00-.984-.928 2.697 2.697 0 00-.88-.128h-1.408v3.696h1.408zm0-5.72c.821 0 1.525.099 2.112.296.592.192 1.077.459 1.456.8.384.341.667.744.848 1.208.181.464.272.965.272 1.504 0 .581-.093 1.115-.28 1.6a3.22 3.22 0 01-.856 1.248c-.384.347-.872.619-1.464.816-.587.192-1.283.288-2.088.288h-1.408V153h-2.704v-11.656h4.112zm13.084 9.496V153h-7.024v-11.656h2.704v9.496h4.32zm12.541-3.672c0 .843-.147 1.627-.44 2.352a5.668 5.668 0 01-1.224 1.896 5.654 5.654 0 01-1.912 1.256c-.741.304-1.565.456-2.472.456s-1.733-.152-2.48-.456a5.739 5.739 0 01-1.92-1.256 5.767 5.767 0 01-1.232-1.896 6.313 6.313 0 01-.432-2.352c0-.843.144-1.627.432-2.352a5.67 5.67 0 011.232-1.888 5.739 5.739 0 011.92-1.256c.747-.304 1.573-.456 2.48-.456s1.731.155 2.472.464a5.654 5.654 0 011.912 1.256 5.575 5.575 0 011.224 1.888 6.2 6.2 0 01.44 2.344zm-2.768 0c0-.576-.075-1.093-.224-1.552a3.247 3.247 0 00-.648-1.176 2.745 2.745 0 00-1.024-.736 3.532 3.532 0 00-1.384-.256c-.523 0-.989.085-1.4.256a2.823 2.823 0 00-1.032.736c-.277.32-.491.712-.64 1.176a5.013 5.013 0 00-.224 1.552c0 .581.075 1.104.224 1.568.149.459.363.848.64 1.168.283.32.627.565 1.032.736a3.73 3.73 0 001.4.248c.517 0 .979-.083 1.384-.248a2.745 2.745 0 001.024-.736c.283-.32.499-.709.648-1.168.149-.464.224-.987.224-1.568zm10.129 1.376l-1.08-3.192c-.08-.203-.166-.44-.256-.712a21.713 21.713 0 01-.272-.896 12.951 12.951 0 01-.512 1.624l-1.072 3.176h3.192zm4.296 4.456h-2.096c-.235 0-.424-.053-.568-.16a1.064 1.064 0 01-.328-.424l-.688-2.032h-4.432l-.688 2.032a1.001 1.001 0 01-.32.408.882.882 0 01-.56.176h-2.112l4.512-11.656h2.768L308.311 153zm11.495-5.832a6.1 6.1 0 01-.44 2.336 5.465 5.465 0 01-1.224 1.848 5.648 5.648 0 01-1.912 1.216c-.742.288-1.566.432-2.472.432h-4.528v-11.656h4.528c.906 0 1.73.147 2.472.44a5.648 5.648 0 011.912 1.216 5.35 5.35 0 011.224 1.848c.293.709.44 1.483.44 2.32zm-2.768 0c0-.576-.075-1.096-.224-1.56a3.277 3.277 0 00-.648-1.176 2.718 2.718 0 00-1.024-.744 3.447 3.447 0 00-1.384-.264h-1.808v7.496h1.808c.517 0 .978-.085 1.384-.256a2.83 2.83 0 001.024-.744c.282-.325.498-.72.648-1.184.149-.464.224-.987.224-1.568zm3.723-4.76c.198-.165.411-.32.64-.464.235-.144.486-.269.752-.376a4.941 4.941 0 011.856-.352c.502 0 .952.067 1.352.2.406.133.75.325 1.032.576.283.245.499.544.648.896.155.347.232.733.232 1.16 0 .405-.056.757-.168 1.056a2.948 2.948 0 01-.424.768c-.17.219-.36.408-.568.568-.202.16-.397.309-.584.448a4.838 4.838 0 00-.48.4.92.92 0 00-.256.448l-.224 1.12h-1.696l-.176-1.288c-.042-.261-.016-.488.08-.68.096-.197.227-.373.392-.528.171-.16.36-.309.568-.448.208-.144.403-.296.584-.456.182-.165.334-.347.456-.544.128-.203.192-.443.192-.72 0-.32-.106-.573-.32-.76-.208-.192-.496-.288-.864-.288-.282 0-.52.029-.712.088a2.84 2.84 0 00-.488.2c-.133.069-.25.133-.352.192a.596.596 0 01-.304.088.552.552 0 01-.512-.296l-.656-1.008zm1.472 9.336c0-.192.035-.371.104-.536.075-.165.174-.309.296-.432a1.4 1.4 0 01.448-.288 1.38 1.38 0 01.56-.112c.198 0 .382.037.552.112.171.069.32.165.448.288.128.123.227.267.296.432.075.165.112.344.112.536 0 .192-.037.373-.112.544a1.276 1.276 0 01-.296.432 1.39 1.39 0 01-.448.288c-.17.069-.354.104-.552.104-.202 0-.389-.035-.56-.104a1.4 1.4 0 01-.448-.288 1.474 1.474 0 01-.296-.432 1.44 1.44 0 01-.104-.544z" fill="#938F8F"/></g><defs><clipPath id="prefix__clip0_11_2"><path fill="#fff" d="M0 0h413v194H0z"/></clipPath><clipPath id="prefix__clip1_11_2"><path fill="#fff" transform="translate(164 14)" d="M0 0h84v83H0z"/></clipPath></defs></svg>