<svg viewBox="0 0 518 94" width="518" height="94" fill="none" xmlns="http://www.w3.org/2000/svg">
    <g clip-path="url(#prefix__clip0_302_2)">
        <path
            d="M2.593 23.516V.71h1.823v22.806H2.593zM27.404 23.516L16.769 6.894c-1.047-1.622-1.925-3.075-2.701-4.562.1 2.839.236 10.204.236 14.664v6.52H12.48V.712h2.465l10.533 16.42a44.067 44.067 0 012.16 3.716c-.134-3.345-.236-9.528-.236-14.224V.71h1.823v22.806h-1.822zM43.931 2.198v21.319h-1.824V2.197h-7.225V.71h16.274v1.488H43.93zM56.791 23.516V.71h11.412v1.453h-9.588v8.852h8.812v1.454h-8.812v9.561h9.588v1.486H56.79zM86.698 23.516l-8.035-10.507h-2.094v10.508h-1.823V.744s2.837-.135 5.2-.135c4.355 0 7.563 1.756 7.563 5.845 0 4.224-3.173 6.217-6.785 6.486 0 0 1.012 1.115 1.992 2.399l6.347 8.177h-2.365zm-10.13-11.96s1.587.034 2.972.034c3.984 0 6.078-1.859 6.078-4.831 0-3.108-2.161-4.696-5.942-4.696-1.52 0-3.107.1-3.107.1v9.392zM109.87 23.516L99.235 6.893c-1.047-1.621-1.925-3.074-2.7-4.561.1 2.838.235 10.204.235 14.663v6.52h-1.823V.71h2.465l10.533 16.42a44.67 44.67 0 012.16 3.717c-.135-3.346-.235-9.528-.235-14.224V.71h1.823v22.805h-1.823zM134.401 23.516l-2.16-5.98h-10.77l-2.195 5.98h-1.958L125.994.71h1.925l8.608 22.806h-2.126zm-6.482-17.772a80.431 80.431 0 01-1.047-3.04h-.033a106.42 106.42 0 01-1.014 2.973l-3.814 10.372h9.689l-3.781-10.305zM146.05 2.198v21.319h-1.823V2.197h-7.225V.71h16.272v1.488h-7.224zM158.91 23.516V.71h1.823v22.806h-1.823zM177.447 23.786c-6.38 0-9.959-4.629-9.959-11.453 0-7.704 4.76-11.893 10.5-11.893 6.38 0 9.959 4.629 9.959 11.453 0 7.704-4.76 11.893-10.5 11.893zm.271-21.826c-4.592 0-8.34 3.48-8.34 9.933 0 6.082 2.803 10.373 8.34 10.373 4.591 0 8.339-3.48 8.339-9.966 0-6.048-2.803-10.34-8.339-10.34zM209.632 23.516L198.997 6.893c-1.046-1.621-1.924-3.074-2.701-4.561.102 2.838.237 10.204.237 14.663v6.52h-1.823V.71h2.463l10.535 16.42a44.959 44.959 0 012.161 3.717c-.136-3.346-.237-9.528-.237-14.224V.71h1.824v22.805h-1.824zM234.164 23.516l-2.162-5.98h-10.769l-2.195 5.98h-1.959L225.757.71h1.923l8.61 22.806h-2.126zm-6.483-17.772a81.995 81.995 0 01-1.045-3.04h-.035c-.303.946-.641 1.925-1.012 2.973l-3.816 10.372h9.689l-3.781-10.305zM241.916 23.516V.71h1.823v21.32h8.914v1.486h-10.737z"
            fill="#00A099" />
        <path
            d="M72.758 36.596a14.599 14.599 0 00-4.793-.806c-2.577 0-3.744 1.008-3.744 2.538 0 4.273 11.195 2.78 11.195 11.687 0 5.118-3.866 8.744-10.833 8.744-2.455 0-4.63-.281-6.443-.724l.564-5.965c1.812.726 4.067 1.21 6.202 1.21 2.174 0 3.785-.767 3.785-2.62 0-4.513-11.073-2.78-11.073-11.726 0-4.997 3.945-8.342 10.752-8.342 1.409 0 3.382.162 4.953.524l-.565 5.48zM80.37 58.276v-27.2h6.282v21.72h8.215v5.48H80.37zM116.735 58.276l-1.652-5.36h-9.341l-1.651 5.36H97.85l8.656-27.2h8.297l8.778 27.2h-6.846zm-5.235-17.57c-.443-1.41-.765-2.822-1.047-4.19h-.082a39.292 39.292 0 01-1.006 4.19l-2.254 7.254h6.644l-2.255-7.254zM144.904 57.47c-1.933.725-4.429 1.169-6.764 1.169-10.028 0-12.725-6.851-12.725-12.977 0-8.825 4.792-14.789 13.772-14.789 1.892 0 3.906.242 5.557.767l-.805 5.721a14.1 14.1 0 00-4.874-.846c-4.388 0-6.764 3.183-6.764 8.1 0 5.359 2.174 8.301 7.046 8.301 1.449 0 3.382-.363 4.671-1.008l.886 5.561zM163.711 58.276l-7.368-12.775v12.775h-6.282v-27.2h6.282v12.008l7.45-12.009h7.53l-8.941 13.056 9.464 14.145h-8.135zM175.887 58.276v-27.2h6.282v21.72h8.215v5.48h-14.497zM194.489 58.276v-27.2h6.281v27.2h-6.281zM222.31 58.276l-7.207-13.782c-.967-1.974-1.652-3.626-2.135-5.239.121 2.015.282 7.86.282 11.404v7.617h-6v-27.2h8.256l6.764 12.935c.806 1.611 1.612 3.506 2.175 5.198-.201-2.337-.283-8.14-.283-11.364v-6.77h5.961v27.2h-7.813v.001zM236.677 58.276v-27.2h15.986v5.279h-9.704v5.398h8.858v5.12h-8.858v6.004h9.704v5.4h-15.986zM19.857 93.035l-1.652-5.36H8.863l-1.65 5.36H.97l8.656-27.2h8.296l8.779 27.2h-6.846zM14.62 75.466c-.443-1.41-.764-2.821-1.046-4.19h-.082a39.75 39.75 0 01-1.006 4.19l-2.254 7.253h6.644l-2.256-7.253zM44.978 71.355a14.6 14.6 0 00-4.792-.805c-2.578 0-3.744 1.007-3.744 2.538 0 4.272 11.194 2.78 11.194 11.687 0 5.118-3.866 8.744-10.833 8.744-2.456 0-4.63-.282-6.442-.726l.563-5.963c1.812.726 4.067 1.21 6.201 1.21 2.175 0 3.786-.767 3.786-2.62 0-4.513-11.074-2.78-11.074-11.727 0-4.996 3.947-8.341 10.751-8.341 1.41 0 3.384.16 4.953.524l-.563 5.48zM66.229 71.355a14.6 14.6 0 00-4.793-.805c-2.577 0-3.744 1.007-3.744 2.538 0 4.272 11.195 2.78 11.195 11.687 0 5.118-3.866 8.744-10.833 8.744-2.455 0-4.63-.282-6.443-.726l.565-5.963c1.811.726 4.066 1.21 6.2 1.21 2.176 0 3.786-.767 3.786-2.62 0-4.513-11.073-2.78-11.073-11.727 0-4.996 3.945-8.341 10.751-8.341 1.41 0 3.383.16 4.953.524l-.564 5.48zM85.416 93.56c-8.376 0-12.725-4.837-12.725-13.54 0-9.511 6.282-14.71 13.61-14.71 8.336 0 12.685 4.837 12.685 13.54 0 9.511-6.282 14.71-13.57 14.71zm.443-22.526c-3.866 0-6.443 2.9-6.443 8.34 0 5.32 2.134 8.463 6.443 8.463 3.865 0 6.443-2.901 6.443-8.342 0-5.319-2.135-8.462-6.443-8.462zM122.517 92.23c-1.932.726-4.429 1.169-6.766 1.169-10.026 0-12.724-6.85-12.724-12.977 0-8.825 4.791-14.788 13.772-14.788 1.893 0 3.905.242 5.557.765l-.807 5.723a14.06 14.06 0 00-4.871-.847c-4.389 0-6.765 3.183-6.765 8.1 0 5.36 2.173 8.3 7.046 8.3 1.45 0 3.383-.362 4.671-1.006l.887 5.56zM127.746 93.035v-27.2h6.282v27.2h-6.282zM156.78 93.035l-1.65-5.36h-9.343l-1.65 5.36h-6.242l8.658-27.2h8.295l8.778 27.2h-6.846zm-5.235-17.569c-.443-1.41-.765-2.821-1.047-4.19h-.079c-.242 1.37-.606 2.82-1.008 4.19l-2.254 7.253h6.644l-2.256-7.253zM175.878 71.195v21.84h-6.242v-21.84h-6.524v-5.36h19.289v5.36h-6.523zM186.603 93.035v-27.2h6.281v27.2h-6.281zM210.91 93.56c-8.376 0-12.725-4.837-12.725-13.54 0-9.511 6.282-14.71 13.61-14.71 8.336 0 12.684 4.837 12.684 13.54 0 9.511-6.28 14.71-13.569 14.71zm.442-22.526c-3.866 0-6.443 2.9-6.443 8.34 0 5.32 2.135 8.463 6.443 8.463 3.865 0 6.443-2.901 6.443-8.342 0-5.319-2.134-8.462-6.443-8.462zM244.85 93.035l-7.207-13.782c-.967-1.973-1.652-3.626-2.135-5.238.121 2.014.282 7.858.282 11.404v7.616h-6v-27.2h8.256l6.764 12.935c.806 1.612 1.612 3.505 2.175 5.198-.201-2.338-.283-8.14-.283-11.365v-6.769h5.961v27.2h-7.813v.001z"
            fill="#E74027" />
        <path
            d="M313.016 16.556V.74h-47.768l47.768 15.817zM404.761 46.938h25.063l27.244-46.2H340.839c-10.856 0-19.957 7.503-22.422 17.607l86.344 28.593zM462.572 66.082l33.814-8.004L462.572.738l-32.239 54.668 32.239 10.676z"
            fill="#00A099" />
        <path
            d="M401.529 50.61L317.78 22.876c-.013.32-.024.64-.024.961 0 12.754 10.328 23.095 23.072 23.1h-23.072v46.2h71.216v-.002l.076.003c12.749 0 23.083-10.343 23.083-23.1.001-8.155-4.226-15.317-10.602-19.428zM265.242 5.479v87.659h47.774v-71.84l-47.774-15.82zM462.572 70.826l-34.579-11.45-19.909 33.762H517.06l-18.219-30.896-36.269 8.584z"
            fill="#E74027" />
    </g>
    <defs>
        <clipPath id="prefix__clip0_302_2">
            <path fill="#fff" d="M0 0h518v94H0z" />
        </clipPath>
    </defs>
</svg>