<svg width="943" height="159" fill="none" xmlns="http://www.w3.org/2000/svg">
    <path
        d="M40.74 38.935V.455h3.078v38.48H40.74zM82.633 38.935L64.676 10.889c-1.768-2.736-3.25-5.188-4.561-7.697.17 4.789.398 17.217.398 24.742v11.002h-3.078V.456h4.162l17.785 27.705c1.312 1.996 2.51 4.105 3.648 6.271-.227-5.645-.398-16.076-.398-24V.455h3.078v38.48h-3.077zM110.539 2.965v35.971h-3.08V2.965H95.26V.455h27.478v2.51h-12.199zM132.254 38.935V.455h19.268v2.451h-16.189v14.936h14.879v2.453h-14.879v16.133h16.189v2.508h-19.268v-.001zM182.752 38.935l-13.568-17.728h-3.535v17.729h-3.078V.512s4.789-.227 8.78-.227c7.353 0 12.77 2.963 12.77 9.861 0 7.127-5.358 10.49-11.457 10.945 0 0 1.709 1.881 3.363 4.047l10.717 13.797h-3.992zm-17.104-20.181s2.679.059 5.017.059c6.727 0 10.262-3.137 10.262-8.152 0-5.244-3.649-7.924-10.033-7.924-2.567 0-5.246.17-5.246.17v15.847zM221.877 38.935L203.92 10.888c-1.767-2.736-3.25-5.188-4.56-7.697.17 4.789.398 17.217.398 24.742v11.002h-3.078V.455h4.162l17.785 27.705c1.311 1.996 2.508 4.105 3.648 6.271-.229-5.645-.398-16.076-.398-24V.454h3.078v38.48h-3.078v.001zM263.299 38.935l-3.648-10.09h-18.186l-3.705 10.09h-3.307l14.65-38.48h3.25l14.535 38.48h-3.589zM252.353 8.949a135.384 135.384 0 01-1.767-5.131h-.057a179.737 179.737 0 01-1.711 5.018l-6.441 17.5h16.361l-6.385-17.387zM282.967 2.965v35.971h-3.078V2.965H267.69V.455h27.476v2.51h-12.199zM304.682 38.935V.455h3.078v38.48h-3.078zM335.982 39.39c-10.773 0-16.816-7.809-16.816-19.324C319.166 7.068 327.203 0 336.895 0c10.773 0 16.816 7.809 16.816 19.324 0 12.998-8.037 20.066-17.729 20.066zm.457-36.826c-7.754 0-14.082 5.873-14.082 16.76 0 10.262 4.733 17.502 14.082 17.502 7.752 0 14.08-5.871 14.08-16.816.001-10.205-4.732-17.446-14.08-17.446zM390.326 38.935l-17.957-28.047c-1.766-2.736-3.248-5.188-4.561-7.697.172 4.789.4 17.217.4 24.742v11.002h-3.078V.455h4.16l17.787 27.705c1.311 1.996 2.508 4.105 3.649 6.271-.229-5.645-.4-16.076-.4-24V.454h3.08v38.48h-3.08v.001zM431.748 38.935l-3.649-10.09h-18.184l-3.707 10.09h-3.307L417.553.455h3.248l14.537 38.48h-3.59zM420.803 8.949a138.89 138.89 0 01-1.766-5.131h-.059a170.185 170.185 0 01-1.709 5.018l-6.442 17.5h16.36l-6.384-17.387zM444.838 38.935V.455h3.078v35.973h15.051v2.508h-18.129v-.001zM67.564 61.13a24.669 24.669 0 00-8.092-1.359c-4.352 0-6.322 1.701-6.322 4.283 0 7.209 18.902 4.691 18.902 19.719 0 8.635-6.527 14.754-18.291 14.754-4.146 0-7.818-.475-10.879-1.223l.953-10.064c3.059 1.225 6.867 2.041 10.471 2.041 3.672 0 6.391-1.293 6.391-4.42C60.697 77.246 42 80.17 42 65.076 42 56.644 48.662 51 60.155 51c2.379 0 5.711.273 8.363.885l-.954 9.245zM80.417 97.712V51.816h10.607v36.648h13.871v9.248H80.417zM141.82 97.712l-2.789-9.043h-15.773l-2.787 9.043h-10.539l14.617-45.896h14.008l14.822 45.896H141.82zm-8.84-29.647c-.748-2.379-1.291-4.76-1.768-7.07h-.137c-.408 2.311-1.019 4.76-1.699 7.07l-3.807 12.24h11.219l-3.808-12.24zM189.384 96.35c-3.264 1.225-7.479 1.973-11.422 1.973-16.931 0-21.486-11.559-21.486-21.895 0-14.891 8.092-24.953 23.254-24.953 3.195 0 6.595.408 9.383 1.293l-1.359 9.654c-2.584-.951-5.373-1.428-8.229-1.428-7.41 0-11.422 5.371-11.422 13.666 0 9.043 3.672 14.008 11.898 14.008 2.447 0 5.711-.613 7.886-1.701l1.497 9.383zM221.14 97.712l-12.441-21.555v21.555h-10.607V51.816h10.607v20.262l12.578-20.262h12.715l-15.096 22.029 15.979 23.867H221.14zM241.699 97.712V51.816h10.607v36.648h13.871v9.248h-24.478zM273.109 97.712V51.816h10.605v45.896h-10.605zM320.085 97.712l-12.17-23.254c-1.633-3.332-2.789-6.119-3.605-8.84.205 3.4.477 13.26.477 19.242v12.852h-10.131V51.816h13.939l11.422 21.826c1.36 2.719 2.721 5.916 3.672 8.771-.34-3.943-.477-13.734-.477-19.174V51.815h10.065v45.896h-13.192v.001zM344.343 97.712V51.816h26.992v8.908H354.95v9.109h14.957v8.637H354.95v10.131h16.385v9.111h-26.992zM63.889 157.779l-2.789-9.043H45.326l-2.787 9.043H32l14.617-45.895h14.008l14.822 45.895H63.889zm-8.84-29.644c-.748-2.379-1.291-4.76-1.767-7.07h-.137c-.408 2.311-1.02 4.758-1.699 7.07l-3.807 12.238h11.219l-3.809-12.238zM106.307 121.199a24.669 24.669 0 00-8.092-1.359c-4.352 0-6.322 1.699-6.322 4.283 0 7.207 18.902 4.691 18.902 19.719 0 8.635-6.527 14.754-18.291 14.754-4.148 0-7.818-.477-10.879-1.225l.951-10.062c3.06 1.225 6.867 2.041 10.471 2.041 3.672 0 6.393-1.293 6.393-4.42 0-7.615-18.699-4.691-18.699-19.787 0-8.43 6.664-14.074 18.154-14.074 2.381 0 5.713.271 8.363.885l-.951 9.245zM142.189 121.199a24.669 24.669 0 00-8.092-1.359c-4.352 0-6.322 1.699-6.322 4.283 0 7.207 18.903 4.691 18.903 19.719 0 8.635-6.528 14.754-18.292 14.754-4.146 0-7.818-.477-10.879-1.225l.953-10.062c3.059 1.225 6.867 2.041 10.471 2.041 3.672 0 6.391-1.293 6.391-4.42 0-7.615-18.697-4.691-18.697-19.787 0-8.43 6.662-14.074 18.154-14.074 2.379 0 5.711.271 8.363.885l-.953 9.245zM174.586 158.664c-14.143 0-21.486-8.16-21.486-22.846 0-16.047 10.607-24.818 22.982-24.818 14.074 0 21.418 8.16 21.418 22.846 0 16.047-10.607 24.818-22.914 24.818zm.748-38.008c-6.527 0-10.879 4.895-10.879 14.074 0 8.975 3.604 14.279 10.879 14.279 6.527 0 10.879-4.896 10.879-14.076 0-8.974-3.604-14.277-10.879-14.277zM237.232 156.42c-3.263 1.225-7.478 1.973-11.424 1.973-16.93 0-21.485-11.559-21.485-21.895 0-14.891 8.09-24.953 23.254-24.953 3.196 0 6.594.408 9.383 1.291l-1.362 9.656c-2.582-.953-5.371-1.428-8.226-1.428-7.41 0-11.422 5.371-11.422 13.666 0 9.043 3.67 14.006 11.898 14.006 2.448 0 5.711-.611 7.887-1.699l1.497 9.383zM246.062 157.779v-45.895h10.606v45.895h-10.606zM295.086 157.779l-2.787-9.043h-15.775l-2.787 9.043h-10.539l14.619-45.895h14.006l14.822 45.895h-11.559zm-8.84-29.644c-.748-2.379-1.291-4.76-1.768-7.07h-.134c-.408 2.311-1.022 4.758-1.701 7.07l-3.807 12.238h11.219l-3.809-12.238zM327.332 120.928v36.852h-10.539v-36.852h-11.016v-9.043h32.57v9.043h-11.015zM345.441 157.779v-45.895h10.607v45.895h-10.607zM386.484 158.664c-14.143 0-21.486-8.16-21.486-22.846 0-16.047 10.607-24.818 22.98-24.818 14.076 0 21.418 8.16 21.418 22.846 0 16.047-10.605 24.818-22.912 24.818zm.746-38.008c-6.528 0-10.879 4.895-10.879 14.074 0 8.975 3.605 14.279 10.879 14.279 6.527 0 10.879-4.896 10.879-14.076 0-8.974-3.603-14.277-10.879-14.277zM443.793 157.779l-12.17-23.254c-1.633-3.33-2.789-6.119-3.605-8.838.205 3.398.477 13.258.477 19.242v12.85h-10.131v-45.895h13.94l11.421 21.826c1.36 2.719 2.721 5.914 3.672 8.771-.34-3.945-.477-13.736-.477-19.176v-11.422h10.065v45.895h-13.192v.001zM565.634 28.07V1.38h-80.656l80.656 26.69zM720.546 79.332h42.319l46.001-77.953H612.614c-18.332 0-33.699 12.66-37.86 29.708l145.792 48.245zM818.16 111.635l57.096-13.507L818.16 1.38l-54.435 92.24 54.435 18.015zM715.088 85.528l-141.41-46.795a39.673 39.673 0 00-.041 1.622c0 21.52 17.439 38.967 38.957 38.977h-38.957v77.953h120.25v-.004c.043.002.085.004.127.004 21.527 0 38.977-17.451 38.977-38.977.001-13.759-7.136-25.844-17.903-32.78zM484.967 9.379v147.906h80.667V36.072L484.967 9.378z"
        fill="#fff" />
    <path d="M818.16 119.639l-58.386-19.32-33.617 56.966h184.007l-30.764-52.13-61.24 14.484z" fill="#fff" />
</svg>